<?xml version="1.0" standalone="no"?>
<!DOCTYPE svg PUBLIC "-//W3C//DTD SVG 20010904//EN"
 "http://www.w3.org/TR/2001/REC-SVG-20010904/DTD/svg10.dtd">
<svg version="1.0" xmlns="http://www.w3.org/2000/svg"
 width="2400.000000pt" height="2176.000000pt" viewBox="0 0 2400.000000 2176.000000"
 preserveAspectRatio="xMidYMid meet">

<g transform="translate(0.000000,2176.000000) scale(0.100000,-0.100000)"
fill="#000000" stroke="none">
<path d="M5905 21460 c-681 -34 -1117 -116 -1571 -295 -287 -114 -802 -366
-1094 -535 -712 -413 -1353 -989 -1873 -1683 -272 -362 -489 -718 -711 -1167
-355 -715 -481 -1185 -537 -1995 -17 -250 -23 -1221 -10 -1500 127 -2619 1088
-4591 3206 -6575 1169 -1095 1802 -1608 4525 -3665 967 -731 1490 -1155 2185
-1774 970 -865 1399 -1354 1785 -2034 46 -82 93 -153 103 -158 27 -15 41 1 99
108 102 190 240 346 813 919 816 817 1767 1682 2760 2510 677 564 1145 930
1880 1469 1578 1157 2591 1990 3459 2845 1219 1201 1981 2315 2496 3650 271
704 421 1508 471 2535 15 301 6 1062 -15 1345 -63 834 -186 1499 -382 2071
-101 295 -230 564 -431 898 -836 1394 -2137 2380 -3714 2816 -529 146 -1001
213 -1579 222 -458 7 -735 -11 -1140 -78 -1898 -311 -3458 -1470 -4270 -3173
-42 -88 -153 -329 -246 -533 -118 -260 -171 -367 -176 -355 -4 9 -41 152 -83
317 -42 165 -92 345 -110 401 -298 877 -1317 2034 -2335 2649 -144 87 -514
288 -705 381 -469 232 -824 324 -1435 374 -170 14 -1139 21 -1365 10z"/>
</g>
</svg>
